<svg id="Layer_1" data-name="Layer 1" xmlns="http://www.w3.org/2000/svg" viewBox="0 0 800 800"><defs><style>.cls-1{fill:#72777a;}.cls-2{fill:#00649c;}.cls-3,.cls-4{fill:#fff;}.cls-3{opacity:0.5;}.cls-4{opacity:0.75;}.cls-5{fill:#8ab31e;}</style></defs><title>technikumdirekt</title><rect class="cls-1" x="604.92" y="291.64" width="136.87" height="136.87" rx="2"/><path class="cls-1" d="M53.46,311.35h-17v-8.27H80.74v8.27H63.57V356H53.46Z"/><path class="cls-1" d="M127.34,332.75H104.93v15.1h25V356H94.82v-53h33.86v8.18H104.93v13.31h22.41Z"/><path class="cls-1" d="M189.35,354.23C186.81,355.5,181,357,173.62,357c-18.37,0-29.71-10.78-29.71-26.83,0-16.42,12.63-28,31.07-28,7.35,0,12.54,1.5,14.8,2.67l-2.29,7.92a30.11,30.11,0,0,0-12.09-2.4c-12.47,0-20.87,7.23-20.87,19.38,0,10.81,7.29,19,20.69,19a32.44,32.44,0,0,0,12.33-2.25Z"/><path class="cls-1" d="M216.28,303.08V324h25.64V303.08H252v53H241.92V332.65H216.28V356H206.17v-53Z"/><path class="cls-1" d="M271.54,356v-53H283.7L299,325.85a137,137,0,0,1,10,18.07l.2-.07a186.19,186.19,0,0,1-.85-21.12V303.08h9.45v53H307l-15.45-23.55a200.07,200.07,0,0,1-10.72-18.75l-.28.07c.39,7.13.47,13.95.47,21.9V356Z"/><path class="cls-1" d="M347.42,303.08v53H337.31v-53Z"/><path class="cls-1" d="M366.93,303.08h10v24.33h.23c1.35-2,2.85-3.73,4.21-5.39l15.73-18.94H409.9l-20.21,22.41L411.41,356h-12l-17-24.49-5.46,6V356h-10Z"/><path class="cls-1" d="M434.48,303.08v29.53c0,10.94,4.83,16.45,12.47,16.45,8.07,0,12.83-5.46,12.83-16.45V303.08h10.11v29.17c0,17.19-9.4,24.73-23.4,24.73-13.07,0-22.12-7-22.12-24.78V303.08Z"/><path class="cls-1" d="M538.34,334c-.33-7.14-.67-15.7-.67-23.37h-.21c-2,6.73-4.47,14.11-7.08,21.37l-8.55,23.37h-8l-7.63-23.16c-2.32-7.26-4.35-14.67-5.9-21.58h-.16c-.28,7.25-.58,16.2-1,23.71L497.86,356h-9.58l3.52-53h14l7.5,21.21c2,6.06,3.82,12.59,5.17,18.46h.24c1.6-5.73,3.63-12.51,5.86-18.52l8.12-21.15h13.73l3,53h-10Z"/><path class="cls-2" d="M36.33,377.2A197.61,197.61,0,0,1,64,375.32c17.79,0,29.83,3.59,38.48,10.65,8.63,6.83,13.88,16.53,13.88,29.95,0,14.1-5.36,25.19-13.81,32.78-9.4,8.19-24.41,12.42-42.63,12.42A199,199,0,0,1,36.33,460ZM52.4,448.15a75,75,0,0,0,10.34.46c23.58.15,36.62-12.06,36.62-31.92.11-18.4-12.35-29-34.25-29a65.25,65.25,0,0,0-12.71,1.06Z"/><path class="cls-2" d="M159,376.07v84.16H143V376.07Z"/><path class="cls-2" d="M190,377.2a164.66,164.66,0,0,1,25.74-1.88c13.19,0,21.75,2.22,27.65,7,4.62,3.65,7.56,9.56,7.56,16.86,0,11.19-8.25,18.52-16,20.93v.39c6.16,2.38,9.87,8.25,12.08,15.83,3,10.61,5.37,20.49,7.16,23.9H237.78c-1.38-2.44-3.46-9-6.12-19.66-2.68-11-7-14.53-16.39-14.8H206v34.46H190Zm15.93,37h11c11.23,0,18.12-5.25,18.12-13.56,0-9.44-7.48-13.33-17.84-13.33a53.26,53.26,0,0,0-11.25.88Z"/><path class="cls-2" d="M361.23,376.07h15.93v38.68h.35c2.14-3.11,4.54-5.93,6.7-8.57l25-30.11h20.32L397.39,411.7l34.52,48.53H412.78l-26.95-38.91-8.67,9.53v29.38H361.23Z"/><path class="cls-2" d="M473.06,389.22h-27V376.07h70.36v13.15H489.12v71H473.06Z"/><rect class="cls-2" x="647.19" y="337.95" width="116.48" height="116.48" rx="2"/><rect class="cls-3" x="664.36" y="291.64" width="17.99" height="40.65"/><rect class="cls-3" x="696.43" y="337.95" width="17.99" height="22.12"/><rect class="cls-4" x="706.16" y="378.98" width="46.22" height="25.68"/><rect class="cls-1" x="709.56" y="382.14" width="9.28" height="1.98"/><rect class="cls-1" x="709.56" y="387.4" width="35.44" height="1.98"/><rect class="cls-1" x="709.56" y="390.51" width="28.14" height="1.98"/><rect class="cls-1" x="709.56" y="397.55" width="19.7" height="1.98"/><rect class="cls-1" x="709.56" y="394.03" width="12.33" height="1.98"/><rect class="cls-1" x="723.63" y="394.03" width="18.52" height="1.98"/><path class="cls-5" d="M585.28,444.72c-178.5,97.53-315.61-8.22-320-4.84-6.41,4.89,173.22,139.86,320,4.84Z"/><path class="cls-5" d="M534.73,449.83c15.29-3.92,39.77-11.58,59.41-24.22a3,3,0,0,1,4.27,3.8c-7.44,15-21.61,42.67-33.4,59.71a3,3,0,0,1-5.45-1.81c.4-8,.45-18.72-1.62-23.88a2.69,2.69,0,0,0-1.47-1.44c-2.44-1.06-9.38-3.79-21.58-6.34A3,3,0,0,1,534.73,449.83Z"/><path class="cls-5" d="M595.75,425.12a3,3,0,0,0-1.62.49,146.93,146.93,0,0,1-16.19,8.92v28.22a2,2,0,0,0,2,2c7.27-13,14.09-26.38,18.53-35.33A3,3,0,0,0,595.75,425.12Z"/><path class="cls-5" d="M665,375.67H579.94a2,2,0,0,0-2,2v50.41A137.71,137.71,0,0,0,591,420.71a8.77,8.77,0,0,1,12.24,2.8,8.68,8.68,0,0,1,.38,8.48c-4.84,9.77-10.84,21.47-17.08,32.76H665a2,2,0,0,0,2-2V377.67A2,2,0,0,0,665,375.67Z"/><path class="cls-2" d="M323.67,460.23h10.81v-13H294.76v-24h35.62v-13H294.76V389.08H332.5v-13H278.7v63.51A376.82,376.82,0,0,0,323.67,460.23Z"/><path class="cls-2" d="M278.7,460v.21H279Z"/><rect class="cls-3" x="613.49" y="375.67" width="17.99" height="28.1"/></svg>