<?xml version="1.0" encoding="UTF-8" standalone="no"?>
<svg
   xmlns:dc="http://purl.org/dc/elements/1.1/"
   xmlns:cc="http://creativecommons.org/ns#"
   xmlns:rdf="http://www.w3.org/1999/02/22-rdf-syntax-ns#"
   xmlns:svg="http://www.w3.org/2000/svg"
   xmlns="http://www.w3.org/2000/svg"
   xmlns:sodipodi="http://sodipodi.sourceforge.net/DTD/sodipodi-0.dtd"
   xmlns:inkscape="http://www.inkscape.org/namespaces/inkscape"
   id="Layer_1"
   data-name="Layer 1"
   viewBox="0 0 727.34003 212.92221"
   version="1.1"
   sodipodi:docname="full.svg"
   width="727.34003"
   height="212.92221"
   inkscape:version="1.0.1 (3bc2e813f5, 2020-09-07)">
  <metadata
     id="metadata228">
    <rdf:RDF>
      <cc:Work
         rdf:about="">
        <dc:format>image/svg+xml</dc:format>
        <dc:type
           rdf:resource="http://purl.org/dc/dcmitype/StillImage" />
      </cc:Work>
    </rdf:RDF>
  </metadata>
  <sodipodi:namedview
     pagecolor="#ffffff"
     bordercolor="#666666"
     borderopacity="1"
     objecttolerance="10"
     gridtolerance="10"
     guidetolerance="10"
     inkscape:pageopacity="0"
     inkscape:pageshadow="2"
     inkscape:window-width="1920"
     inkscape:window-height="1016"
     id="namedview226"
     showgrid="false"
     inkscape:zoom="1.5075"
     inkscape:cx="363.67"
     inkscape:cy="108.35999"
     inkscape:window-x="0"
     inkscape:window-y="218"
     inkscape:window-maximized="1"
     inkscape:current-layer="Layer_1" />
  <defs
     id="defs157">
    <style
       id="style155">.cls-1{fill:#72777a;}.cls-2{fill:#00649c;}.cls-3,.cls-4{fill:#fff;}.cls-3{opacity:0.5;}.cls-4{opacity:0.75;}.cls-5{fill:#8ab31e;}</style>
  </defs>
  <title
     id="title159">technikumdirekt</title>
  <rect
     class="cls-1"
     x="568.58997"
     y="0"
     width="136.87"
     height="136.87"
     rx="2"
     id="rect161" />
  <path
     class="cls-1"
     d="m 17.13,19.709985 h -17 v -8.27 h 44.28 v 8.27 H 27.24 v 44.65 H 17.13 Z"
     id="path163" />
  <path
     class="cls-1"
     d="M 91.01,41.109985 H 68.6 v 15.1 h 25 v 8.15 H 58.49 v -53 h 33.86 v 8.18 H 68.6 v 13.31 h 22.41 z"
     id="path165" />
  <path
     class="cls-1"
     d="m 153.02,62.589985 c -2.54,1.27 -8.35,2.77 -15.73,2.77 -18.37,0 -29.71,-10.78 -29.71,-26.83 0,-16.42 12.63,-28 31.07,-28 7.35,0 12.54,1.5 14.8,2.67 l -2.29,7.92 a 30.11,30.11 0 0 0 -12.09,-2.4 c -12.47,0 -20.87,7.23 -20.87,19.38 0,10.81 7.29,19 20.69,19 a 32.44,32.44 0 0 0 12.33,-2.25 z"
     id="path167" />
  <path
     class="cls-1"
     d="m 179.95,11.439985 v 20.92 h 25.64 v -20.92 h 10.08 v 53 h -10.08 v -23.43 h -25.64 v 23.35 h -10.11 v -53 z"
     id="path169" />
  <path
     class="cls-1"
     d="m 235.21,64.359985 v -53 h 12.16 l 15.3,22.85 a 137,137 0 0 1 10,18.07 l 0.2,-0.07 a 186.19,186.19 0 0 1 -0.85,-21.12 v -19.65 h 9.45 v 53 h -10.8 l -15.45,-23.55 a 200.07,200.07 0 0 1 -10.72,-18.75 l -0.28,0.07 c 0.39,7.13 0.47,13.95 0.47,21.9 v 20.25 z"
     id="path171" />
  <path
     class="cls-1"
     d="m 311.09,11.439985 v 53 h -10.11 v -53 z"
     id="path173" />
  <path
     class="cls-1"
     d="m 330.6,11.439985 h 10 v 24.33 h 0.23 c 1.35,-2 2.85,-3.73 4.21,-5.39 l 15.73,-18.94 h 12.8 l -20.21,22.41 21.72,30.51 h -12 l -17,-24.49 -5.46,6 v 18.49 h -10 z"
     id="path175" />
  <path
     class="cls-1"
     d="m 398.15,11.439985 v 29.53 c 0,10.94 4.83,16.45 12.47,16.45 8.07,0 12.83,-5.46 12.83,-16.45 v -29.53 h 10.11 v 29.17 c 0,17.19 -9.4,24.73 -23.4,24.73 -13.07,0 -22.12,-7 -22.12,-24.78 v -29.12 z"
     id="path177" />
  <path
     class="cls-1"
     d="m 502.01,42.359985 c -0.33,-7.14 -0.67,-15.7 -0.67,-23.37 h -0.21 c -2,6.73 -4.47,14.11 -7.08,21.37 l -8.55,23.37 h -8 l -7.63,-23.16 c -2.32,-7.26 -4.35,-14.67 -5.9,-21.58 h -0.16 c -0.28,7.25 -0.58,16.2 -1,23.71 l -1.28,21.66 h -9.58 l 3.52,-53 h 14 l 7.5,21.21 c 2,6.06 3.82,12.59 5.17,18.46 h 0.24 c 1.6,-5.73 3.63,-12.51 5.86,-18.52 l 8.12,-21.15 h 13.73 l 3,53 h -10 z"
     id="path179" />
  <path
     class="cls-2"
     d="m 0,85.559985 a 197.61,197.61 0 0 1 27.67,-1.88 c 17.79,0 29.83,3.59 38.48,10.65 8.63,6.830005 13.88,16.530005 13.88,29.950005 0,14.1 -5.36,25.19 -13.81,32.78 -9.4,8.19 -24.41,12.42 -42.63,12.42 A 199,199 0 0 1 0,168.35999 Z m 16.07,70.950005 a 75,75 0 0 0 10.34,0.46 c 23.58,0.15 36.62,-12.06 36.62,-31.92 0.11,-18.4 -12.35,-29.000005 -34.25,-29.000005 a 65.25,65.25 0 0 0 -12.71,1.06 z"
     id="path181" />
  <path
     class="cls-2"
     d="m 122.67,84.429985 v 84.160005 h -16 V 84.429985 Z"
     id="path183" />
  <path
     class="cls-2"
     d="m 153.67,85.559985 a 164.66,164.66 0 0 1 25.74,-1.88 c 13.19,0 21.75,2.22 27.65,7 4.62,3.65 7.56,9.560005 7.56,16.860005 0,11.19 -8.25,18.52 -16,20.93 v 0.39 c 6.16,2.38 9.87,8.25 12.08,15.83 3,10.61 5.37,20.49 7.16,23.9 h -16.41 c -1.38,-2.44 -3.46,-9 -6.12,-19.66 -2.68,-11 -7,-14.53 -16.39,-14.8 h -9.27 v 34.46 h -16 z m 15.93,37.000005 h 11 c 11.23,0 18.12,-5.25 18.12,-13.56 0,-9.440005 -7.48,-13.330005 -17.84,-13.330005 a 53.26,53.26 0 0 0 -11.25,0.88 z"
     id="path185" />
  <path
     class="cls-2"
     d="m 324.9,84.429985 h 15.93 v 38.680005 h 0.35 c 2.14,-3.11 4.54,-5.93 6.7,-8.57 l 25,-30.110005 h 20.32 l -32.14,35.630005 34.52,48.53 h -19.13 l -26.95,-38.91 -8.67,9.53 v 29.38 H 324.9 Z"
     id="path187" />
  <path
     class="cls-2"
     d="m 436.73,97.579985 h -27 v -13.15 h 70.36 v 13.15 h -27.3 v 71.000005 h -16.06 z"
     id="path189" />
  <rect
     class="cls-2"
     x="610.85999"
     y="46.309998"
     width="116.48"
     height="116.48"
     rx="2"
     id="rect191" />
  <rect
     class="cls-3"
     x="628.02997"
     y="0"
     width="17.99"
     height="40.650002"
     id="rect193" />
  <rect
     class="cls-3"
     x="660.09998"
     y="46.309998"
     width="17.99"
     height="22.120001"
     id="rect195" />
  <rect
     class="cls-4"
     x="669.82996"
     y="87.339996"
     width="46.220001"
     height="25.68"
     id="rect197" />
  <rect
     class="cls-1"
     x="673.22998"
     y="90.5"
     width="9.2799997"
     height="1.98"
     id="rect199" />
  <rect
     class="cls-1"
     x="673.22998"
     y="95.759979"
     width="35.439999"
     height="1.98"
     id="rect201" />
  <rect
     class="cls-1"
     x="673.22998"
     y="98.869995"
     width="28.139999"
     height="1.98"
     id="rect203" />
  <rect
     class="cls-1"
     x="673.22998"
     y="105.90997"
     width="19.700001"
     height="1.98"
     id="rect205" />
  <rect
     class="cls-1"
     x="673.22998"
     y="102.38998"
     width="12.33"
     height="1.98"
     id="rect207" />
  <rect
     class="cls-1"
     x="687.29999"
     y="102.38998"
     width="18.52"
     height="1.98"
     id="rect209" />
  <path
     class="cls-5"
     d="m 548.95,153.07999 c -178.5,97.53 -315.61,-8.22 -320,-4.84 -6.41,4.89 173.22,139.86 320,4.84 z"
     id="path211" />
  <path
     class="cls-5"
     d="m 498.4,158.18999 c 15.29,-3.92 39.77,-11.58 59.41,-24.22 a 3,3 0 0 1 4.27,3.8 c -7.44,15 -21.61,42.67 -33.4,59.71 a 3,3 0 0 1 -5.45,-1.81 c 0.4,-8 0.45,-18.72 -1.62,-23.88 a 2.69,2.69 0 0 0 -1.47,-1.44 c -2.44,-1.06 -9.38,-3.79 -21.58,-6.34 a 3,3 0 0 1 -0.16,-5.82 z"
     id="path213" />
  <path
     class="cls-5"
     d="m 559.42,133.47999 a 3,3 0 0 0 -1.62,0.49 146.93,146.93 0 0 1 -16.19,8.92 v 28.22 a 2,2 0 0 0 2,2 c 7.27,-13 14.09,-26.38 18.53,-35.33 a 3,3 0 0 0 -2.72,-4.3 z"
     id="path215" />
  <path
     class="cls-5"
     d="m 628.67,84.029985 h -85.06 a 2,2 0 0 0 -2,2 v 50.410005 a 137.71,137.71 0 0 0 13.06,-7.37 8.77,8.77 0 0 1 12.24,2.8 8.68,8.68 0 0 1 0.38,8.48 c -4.84,9.77 -10.84,21.47 -17.08,32.76 h 78.46 a 2,2 0 0 0 2,-2 V 86.029985 a 2,2 0 0 0 -2,-2 z"
     id="path217" />
  <path
     class="cls-2"
     d="m 287.34,168.58999 h 10.81 v -13 h -39.72 v -24 h 35.62 v -13 H 258.43 V 97.439985 h 37.74 v -13 h -53.8 v 63.510005 a 376.82,376.82 0 0 0 44.97,20.64 z"
     id="path219" />
  <path
     class="cls-2"
     d="m 242.37,168.35999 v 0.21 h 0.3 z"
     id="path221" />
  <rect
     class="cls-3"
     x="577.15997"
     y="84.029999"
     width="17.99"
     height="28.1"
     id="rect223" />
</svg>
