<svg xmlns="http://www.w3.org/2000/svg" viewBox="0 0 574.74 561.47"><defs><style>.cls-1{fill:#72777a;}.cls-2,.cls-5{fill:#fff;}.cls-2{opacity:0.5;}.cls-3{fill:#8ab31e;}.cls-4{fill:#00649c;}.cls-5{opacity:0.75;}</style></defs><title>Asset 2</title><g id="Layer_2" data-name="Layer 2"><g id="Layer_1-2" data-name="Layer 1"><rect class="cls-1" x="83.49" width="423.55" height="423.55" rx="8"/><rect class="cls-2" x="267.42" width="55.68" height="125.81"/><path class="cls-3" d="M476.5,483.11C242.75,610.84,63.2,472.35,57.41,476.77c-8.39,6.4,226.83,183.15,419.09,6.34Z"/><path class="cls-3" d="M410.29,489.8c20-5.13,52.09-15.16,77.8-31.71a3.88,3.88,0,0,1,5.6,5c-9.75,19.71-28.3,55.88-43.75,78.19a3.9,3.9,0,0,1-7.12-2.38c.51-10.47.57-24.51-2.14-31.26a3.46,3.46,0,0,0-1.92-1.89c-3.19-1.4-12.28-5-28.26-8.31A3.91,3.91,0,0,1,410.29,489.8Z"/><path class="cls-4" d="M566.74,143.31H222.29a8,8,0,0,0-8,8V495.76a8,8,0,0,0,8,8H405.92a11.51,11.51,0,0,1,2.47-21.33c21.07-5.39,51.29-15.11,75.61-30.76a11.51,11.51,0,0,1,6.21-1.83,11.66,11.66,0,0,1,9.81,5.49,11.38,11.38,0,0,1,.5,11.12c-5.55,11.18-12.25,24.31-19.31,37.31h85.53a8,8,0,0,0,8-8V151.31A8,8,0,0,0,566.74,143.31Z"/><path class="cls-3" d="M57.39,476.76c-3.49,2.68,35.44,35,96,59h85.21c-105-9.72-174-59.06-180.77-59.06A.67.67,0,0,0,57.39,476.76Z"/><path class="cls-3" d="M122,530.21C86.33,512.9,53.4,490,50.06,480.16a8.36,8.36,0,0,1,2.74-9.47,8.24,8.24,0,0,1,5-1.64c3.37,0,6.72,1.77,16.66,7,27.72,14.68,101.37,53.68,199.8,53.68h1.12a8,8,0,0,0,.27-2V268.06a8,8,0,0,0-8-8H8a8,8,0,0,0-8,8V527.71a8,8,0,0,0,8,8H133.77C129.64,533.86,125.69,532,122,530.21Z"/><rect class="cls-2" x="109.99" y="260.06" width="55.68" height="80.32"/><rect class="cls-2" x="366.67" y="143.31" width="55.68" height="68.46"/><rect class="cls-5" x="396.77" y="270.3" width="143.02" height="79.45"/><rect class="cls-1" x="407.31" y="280.08" width="28.73" height="6.11"/><rect class="cls-1" x="407.31" y="296.35" width="109.67" height="6.11"/><rect class="cls-1" x="407.31" y="316.87" width="38.16" height="6.11"/><rect class="cls-1" x="407.31" y="305.98" width="87.09" height="6.11"/><rect class="cls-1" x="407.31" y="327.75" width="60.97" height="6.11"/><rect class="cls-1" x="450.85" y="316.87" width="57.3" height="6.11"/></g></g></svg>